<?xml version="1.0" encoding="UTF-8"?>
<!DOCTYPE svg PUBLIC "-//W3C//DTD SVG 1.1//EN" "http://www.w3.org/Graphics/SVG/1.1/DTD/svg11.dtd">
<!-- Creator: CorelDRAW X6 -->
<svg xmlns="http://www.w3.org/2000/svg" xml:space="preserve" width="202.451mm" height="145.261mm" version="1.1" style="shape-rendering:geometricPrecision; text-rendering:geometricPrecision; image-rendering:optimizeQuality; fill-rule:evenodd; clip-rule:evenodd"
viewBox="0 0 20089 14414"
 xmlns:xlink="http://www.w3.org/1999/xlink">
 <defs>
  <style type="text/css">
   <![CDATA[
    .str0 {stroke:white;stroke-width:21.5521}
    .str1 {stroke:white;stroke-width:25.8487}
    .fil1 {fill:#6C1C24;fill-rule:nonzero}
    .fil0 {fill:#858F28;fill-rule:nonzero}
    .fil2 {fill:#BFCFED;fill-rule:nonzero}
    .fil3 {fill:white;fill-rule:nonzero}
   ]]>
  </style>
 </defs>
 <g id="Layer_x0020_1">
  <metadata id="CorelCorpID_0Corel-Layer"/>
  <path class="fil0" d="M9503 7042c2706,-1039 1702,-733 5933,-1140 0,0 -2321,-163 -3870,-814 -1439,-605 -2245,492 -3094,529 -1858,82 -2838,-773 -4334,-1425 -1496,-650 -4334,1343 -4127,1710 206,366 3553,3421 9492,1140zm0 0z"/>
  <path class="fil1" d="M16446 3878c0,0 -702,-687 -2456,-100l-1263 3089c0,0 1439,276 2965,-740 30,-20 75,-37 132,-55l27 -316c0,0 29,-304 272,-315 235,-10 293,289 293,289l57 246c215,-16 437,-22 623,-16l-650 -2081zm0 0z"/>
  <path class="fil1 str0" d="M6213 7797c0,0 127,-808 319,-808 192,0 315,808 315,808 0,0 -280,163 -634,1zm0 0z"/>
  <path class="fil1 str1" d="M5088 8376c0,0 264,-1669 665,-1669 401,0 661,1666 661,1666 0,0 -585,338 -1326,3zm0 0z"/>
  <path class="fil1 str0" d="M7053 7913c0,0 172,-1106 435,-1106 262,0 432,1104 432,1104 0,0 -385,225 -868,3zm0 0z"/>
  <path class="fil1 str0" d="M8250 7673c0,0 127,-808 319,-808 191,0 315,807 315,807 0,0 -281,163 -635,1zm0 0z"/>
  <path class="fil1 str0" d="M8903 7635c0,0 87,-559 219,-559 133,0 219,557 219,557 0,0 -194,113 -439,1zm0 0z"/>
  <path class="fil2" d="M6351 2152c980,-159 2596,-104 2429,-125 0,0 -4671,-1996 1272,-2025 0,0 7707,-339 9316,6182 0,0 -551,-325 -1986,-423l-760 -2144c0,0 -893,-665 -2803,-60l-749 1763c0,0 -408,-79 -857,-241 -455,-164 -897,-377 -1390,-410 -1126,-75 -1683,661 -2465,670 -1242,14 -3058,-983 -3952,-1469 -796,-432 293,-1446 1946,-1718zm0 0z"/>
  <path class="fil1" d="M1352 7683c0,0 4883,3736 11138,971 5267,-2329 7599,-1123 7599,-1123 0,0 -2928,-3365 -8705,-624 -5366,2546 -10032,776 -10032,776zm0 0z"/>
  <path class="fil3" d="M10815 3617c0,0 1710,-1054 -1727,-1553 0,0 -505,-3756 -4232,-455 0,0 -2867,-1892 -3548,95 0,0 -469,1938 2586,2037 3056,100 3548,-1187 3548,-1187 0,0 269,2395 3373,1062zm0 0z"/>
  <path class="fil3" d="M11794 2058c0,0 -487,-368 636,-334 0,0 120,-883 1513,-8 0,0 999,-383 1277,106 0,0 201,473 -896,425 -1096,-48 -1295,-366 -1295,-366 0,0 116,574 -1236,177zm0 0z"/>
  <path class="fil1" d="M12320 11377c-66,0 -131,-7 -196,-21 -65,-14 -123,-34 -175,-60 -51,-26 -94,-58 -125,-97 -33,-38 -48,-82 -48,-129l0 -298 73 0c26,174 77,298 154,372 78,74 184,111 317,111 91,0 165,-20 220,-62 55,-41 82,-103 82,-184 0,-72 -23,-132 -66,-181 -45,-48 -106,-95 -183,-145l-296 -189c-109,-68 -186,-138 -231,-210 -46,-73 -67,-155 -67,-249 0,-135 48,-242 145,-321 96,-79 228,-118 394,-118 65,0 131,7 196,21 65,14 124,34 175,60 51,26 93,59 125,98 33,39 49,81 49,129l0 299 -73 0c-27,-174 -79,-299 -154,-373 -74,-74 -172,-111 -293,-111 -86,0 -154,22 -203,65 -51,44 -75,104 -75,180 0,35 5,66 17,95 12,28 28,54 50,78 21,23 48,46 78,68 30,23 65,46 104,69l295 188c109,68 189,135 240,201 50,66 75,145 75,240 0,146 -52,263 -156,348 -105,85 -255,128 -449,128zm0 0z"/>
  <path class="fil1" d="M13897 11331l-84 -117 -12 0c-24,33 -64,64 -118,96 -55,30 -128,46 -221,46 -34,0 -70,-6 -111,-16 -39,-11 -78,-30 -113,-58 -36,-27 -65,-64 -90,-109 -24,-46 -37,-105 -37,-174 0,-71 17,-128 50,-174 34,-46 80,-84 136,-111 56,-27 122,-46 196,-57 74,-11 152,-16 235,-16l72 0c0,-89 -6,-162 -19,-219 -13,-57 -32,-101 -54,-134 -23,-31 -50,-53 -81,-65 -32,-11 -66,-17 -102,-17 -68,0 -125,15 -171,46 -46,31 -78,89 -96,173l-108 0c0,-44 3,-87 7,-125 5,-38 23,-74 54,-107 14,-15 35,-29 61,-41 27,-12 57,-21 89,-29 32,-7 66,-12 103,-16 36,-4 73,-4 110,-4 55,0 108,6 158,18 51,13 95,39 136,77 40,39 71,94 94,164 24,71 35,163 35,277l0 692 -120 0zm-96 -592l-72 0c-121,0 -216,24 -285,71 -69,47 -103,109 -103,186 0,41 8,77 19,109 13,30 30,56 52,76 21,21 45,36 72,46 28,10 57,14 87,14 60,0 107,-16 142,-47 35,-32 64,-67 88,-107l0 -347zm0 0z"/>
  <path class="fil1" d="M14369 10437c0,-76 -10,-138 -30,-185 -20,-47 -66,-71 -138,-71l-24 0 0 -51 192 0c61,0 107,9 138,27 30,19 53,47 66,86l12 0c24,-32 60,-64 109,-94 48,-32 109,-46 181,-46 25,0 50,2 78,8 27,6 50,16 67,29 19,14 33,30 46,49 13,19 25,41 38,66l-96 77c-18,-26 -44,-44 -79,-57 -35,-12 -72,-19 -114,-19 -48,0 -93,12 -133,35 -40,24 -73,55 -97,93l0 949 -216 0 0 -894zm0 0z"/>
  <path class="fil1" d="M16204 11331l-120 0 -85 -116 -11 0c-13,16 -28,32 -44,49 -18,17 -39,32 -65,46 -25,13 -55,24 -91,33 -35,9 -78,12 -125,12 -72,0 -136,-16 -191,-50 -54,-32 -100,-78 -136,-134 -37,-57 -64,-123 -81,-199 -17,-76 -26,-158 -26,-245 0,-87 9,-168 28,-244 19,-75 46,-142 84,-199 39,-56 86,-101 143,-134 57,-34 125,-50 203,-50 67,0 125,8 174,24 48,17 91,34 128,53l0 -230c0,-77 -10,-138 -30,-185 -20,-47 -66,-70 -138,-70l-48 0 0 -52 216 0c41,0 75,4 104,12 28,7 50,22 67,45 17,24 28,55 35,95 6,40 10,93 10,155l0 1383zm-216 -1051c-37,-19 -75,-37 -115,-53 -40,-16 -77,-24 -114,-24 -54,0 -100,14 -138,41 -37,27 -69,64 -93,111 -24,47 -42,102 -53,166 -12,65 -17,134 -17,207 0,74 5,143 15,207 10,64 27,120 51,167 23,47 53,84 87,111 35,28 75,41 125,41 35,0 66,-4 92,-12 26,-8 50,-20 70,-35 20,-15 37,-31 51,-51 14,-18 27,-37 40,-56l0 -821zm0 0z"/>
  <path class="fil1" d="M16806 11331l-216 0 0 -894c0,-76 -10,-138 -30,-185 -21,-47 -67,-71 -140,-71l-49 0 0 -51 218 0c42,0 77,4 106,11 28,8 50,23 66,46 17,24 29,55 36,95 6,40 10,91 10,155l0 895zm-14 -1474c0,36 -10,64 -30,84 -20,21 -47,30 -81,30 -38,0 -70,-16 -96,-48 -27,-33 -40,-71 -40,-116 0,-35 10,-63 30,-83 20,-21 47,-31 81,-31 38,0 69,16 96,49 26,32 40,71 40,115zm0 0z"/>
  <path class="fil1" d="M17180 10437c0,-76 -10,-138 -30,-185 -20,-47 -66,-71 -138,-71l-48 0 0 -51 216 0c61,0 107,9 138,26 31,17 53,41 66,74l13 0c30,-33 72,-63 125,-89 53,-26 116,-39 189,-39 52,0 101,6 151,18 49,13 93,37 131,73 39,35 70,82 93,142 24,60 35,136 35,228l0 768 -216 0 0 -768c0,-64 -8,-118 -23,-163 -15,-44 -35,-80 -61,-107 -25,-28 -53,-47 -84,-60 -31,-11 -64,-18 -98,-18 -49,0 -93,14 -134,41 -41,28 -77,60 -108,95l0 979 -216 0 0 -894zm0 0z"/>
  <path class="fil1" d="M18711 11331l-216 0 0 -894c0,-76 -10,-138 -31,-185 -20,-47 -67,-71 -140,-71l-49 0 0 -51 218 0c43,0 78,4 105,11 29,8 52,23 68,46 16,24 29,55 35,95 7,40 10,91 10,155l0 895zm-14 -1474c0,36 -10,64 -30,84 -21,21 -48,30 -82,30 -36,0 -69,-16 -96,-48 -26,-33 -40,-71 -40,-116 0,-35 10,-63 30,-83 20,-21 48,-31 82,-31 37,0 69,16 96,49 26,32 39,71 39,115zm0 0z"/>
  <path class="fil1" d="M19756 11331l-85 -117 -11 0c-24,33 -64,64 -118,96 -55,30 -130,46 -221,46 -34,0 -71,-6 -111,-16 -41,-11 -78,-30 -114,-58 -36,-27 -65,-64 -89,-109 -24,-46 -36,-105 -36,-174 0,-71 17,-128 51,-174 34,-46 79,-84 135,-111 57,-27 122,-46 196,-57 74,-11 153,-16 235,-16l73 0c0,-89 -7,-162 -20,-219 -13,-57 -30,-101 -53,-134 -23,-31 -50,-53 -82,-65 -32,-11 -64,-17 -100,-17 -68,0 -125,15 -172,46 -46,31 -78,89 -95,173l-109 0c0,-44 2,-87 7,-125 6,-38 23,-74 53,-107 15,-15 35,-29 62,-41 26,-12 55,-21 88,-29 32,-7 67,-12 102,-16 37,-4 73,-4 111,-4 55,0 107,6 159,18 51,13 96,39 135,77 39,39 71,94 94,164 23,71 36,163 36,277l0 692 -120 0zm-96 -592l-73 0c-121,0 -215,24 -284,71 -69,47 -103,109 -103,186 0,41 6,77 19,109 13,30 30,56 51,76 21,21 45,36 73,46 27,10 56,14 87,14 59,0 107,-16 141,-47 35,-32 65,-67 89,-107l0 -347zm0 0z"/>
  <path class="fil1" d="M9381 12400c-55,-259 -154,-457 -300,-595 -145,-137 -338,-206 -576,-206 -133,0 -256,22 -371,64 -116,42 -217,116 -302,220 -87,103 -154,242 -204,415 -48,172 -73,387 -73,647 0,162 17,320 53,472 35,153 89,286 166,404 76,117 175,209 294,279 120,71 266,105 440,105 199,0 383,-51 554,-155 170,-102 308,-253 412,-451l151 117c-136,240 -301,416 -497,529 -197,114 -446,170 -749,170 -228,0 -431,-38 -609,-113 -177,-75 -327,-179 -448,-311 -122,-133 -214,-289 -277,-467 -64,-179 -96,-372 -96,-579 0,-219 37,-424 108,-612 72,-188 172,-351 299,-492 126,-139 277,-250 452,-331 174,-80 364,-120 569,-120 271,0 489,35 655,106 165,71 289,152 369,244 57,76 91,172 100,291 8,119 13,241 13,369l-132 0zm0 0z"/>
  <path class="fil1" d="M11303 14330l-151 -196 -21 0c-44,53 -114,107 -213,160 -97,51 -229,78 -393,78 -60,0 -127,-10 -199,-29 -73,-18 -140,-50 -204,-97 -64,-46 -116,-109 -160,-185 -42,-79 -64,-176 -64,-295 0,-118 30,-217 91,-294 61,-79 141,-140 242,-187 101,-46 219,-79 351,-98 132,-19 272,-28 419,-28l130 0c0,-149 -12,-273 -35,-369 -22,-95 -54,-170 -95,-224 -40,-53 -88,-89 -144,-110 -56,-19 -116,-30 -179,-30 -120,0 -222,26 -304,79 -82,51 -138,149 -170,291l-195 0c0,-75 5,-146 13,-210 9,-66 40,-126 95,-181 26,-27 62,-50 109,-70 48,-20 100,-37 158,-48 58,-12 119,-20 184,-26 65,-6 130,-8 196,-8 98,0 192,10 283,32 91,21 172,64 242,129 71,64 127,157 168,277 42,120 62,276 62,470l0 1168 -217 0zm-173 -996l-130 0c-216,0 -385,39 -509,118 -123,80 -184,183 -184,314 0,69 12,129 35,181 23,52 53,95 91,129 37,35 81,60 130,76 49,17 101,24 156,24 106,0 190,-27 253,-80 62,-53 114,-113 158,-179l0 -583zm0 0z"/>
  <path class="fil1" d="M13561 13809c0,93 -19,173 -59,242 -38,69 -91,128 -157,176 -66,47 -145,84 -240,107 -93,25 -194,37 -300,37 -173,0 -314,-16 -423,-46 -110,-30 -192,-72 -247,-127 -55,-55 -86,-117 -95,-187 -8,-68 -12,-158 -12,-267l83 0c24,141 84,250 182,331 98,81 239,121 424,121 164,0 284,-28 360,-86 76,-57 114,-130 114,-217 0,-86 -32,-158 -97,-217 -64,-60 -162,-116 -291,-171l-259 -108c-163,-66 -291,-145 -381,-235 -91,-91 -136,-207 -136,-348 0,-93 18,-173 53,-242 37,-70 86,-127 150,-175 63,-48 139,-84 225,-108 86,-24 181,-37 284,-37 165,0 301,15 407,45 107,30 188,73 242,128 55,54 87,117 95,185 9,69 13,159 13,269l-84 0c-22,-141 -82,-252 -179,-333 -97,-80 -232,-120 -405,-120 -141,0 -248,29 -322,86 -73,58 -111,129 -111,215 0,75 30,144 91,206 60,62 145,116 255,161l258 109c184,75 323,157 419,247 95,89 142,209 142,358zm0 0z"/>
  <path class="fil1" d="M15658 13375l-1309 0c0,118 13,228 39,329 26,100 64,188 115,262 50,73 111,130 183,170 73,40 154,61 246,61 141,0 258,-30 352,-91 93,-61 178,-146 253,-257l86 65c-98,165 -211,283 -339,353 -129,70 -275,104 -439,104 -153,0 -285,-29 -398,-85 -112,-56 -206,-133 -283,-227 -76,-95 -133,-207 -170,-335 -38,-128 -56,-266 -56,-413 0,-147 19,-284 58,-412 39,-129 96,-241 171,-336 75,-95 165,-171 272,-227 107,-56 227,-84 363,-84 293,0 511,82 653,246 141,165 211,398 211,704l-8 172zm-403 -174c0,-249 -37,-440 -112,-574 -75,-134 -188,-200 -340,-200 -66,0 -127,19 -181,58 -55,39 -103,93 -143,161 -40,69 -72,150 -96,245 -22,94 -34,197 -34,309l906 0zm0 0z"/>
  <path class="fil1" d="M17856 14330l-216 0 -152 -176 -21 0c-55,56 -130,105 -225,150 -95,44 -207,67 -337,67 -92,0 -182,-11 -270,-33 -88,-21 -166,-61 -235,-121 -70,-59 -125,-139 -166,-240 -42,-101 -63,-230 -63,-386l0 -779c0,-130 -18,-235 -55,-315 -36,-79 -120,-118 -250,-118l-44 0 0 -84 348 0c75,0 138,6 189,19 50,13 91,39 122,78 30,40 51,92 63,161 11,68 17,155 17,261l0 778c0,110 13,201 41,275 27,73 63,134 108,180 44,46 95,79 151,99 56,20 114,30 175,30 86,0 165,-24 239,-69 74,-46 138,-100 192,-161l0 -1652 390 0 0 2035zm0 0z"/>
  <path class="fil1" d="M19922 13809c0,93 -20,173 -59,242 -39,69 -91,128 -158,176 -66,47 -146,84 -240,107 -94,25 -194,37 -300,37 -172,0 -314,-16 -424,-46 -109,-30 -192,-72 -245,-127 -55,-55 -87,-117 -95,-187 -8,-68 -13,-158 -13,-267l84 0c23,141 83,250 181,331 98,81 239,121 424,121 164,0 284,-28 361,-86 77,-57 115,-130 115,-217 0,-86 -32,-158 -97,-217 -64,-60 -161,-116 -291,-171l-260 -108c-163,-66 -291,-145 -381,-235 -90,-91 -136,-207 -136,-348 0,-93 17,-173 54,-242 36,-70 86,-127 149,-175 64,-48 139,-84 225,-108 86,-24 182,-37 286,-37 164,0 300,15 406,45 107,30 188,73 243,128 54,54 86,117 95,185 9,69 13,159 13,269l-84 0c-24,-141 -84,-252 -180,-333 -96,-80 -231,-120 -404,-120 -142,0 -249,29 -324,86 -73,58 -109,129 -109,215 0,75 30,144 91,206 60,62 145,116 254,161l258 109c184,75 323,157 418,247 95,89 143,209 143,358zm0 0z"/>
 </g>
</svg>
